<svg width="100" height="100" viewBox="0 0 100 100" fill="none" xmlns="http://www.w3.org/2000/svg">
  <rect width="100" height="100" rx="12" fill="#1A1A1A"/>
  <rect x="10" y="10" width="80" height="80" rx="8" fill="#2A2A2A"/>
  
  <!-- Chart-like icon -->
  <path d="M25 65 L35 55 L45 60 L55 45 L65 50 L75 35" stroke="#4ADE80" stroke-width="2" fill="none"/>
  <circle cx="25" cy="65" r="2" fill="#4ADE80"/>
  <circle cx="35" cy="55" r="2" fill="#4ADE80"/>
  <circle cx="45" cy="60" r="2" fill="#4ADE80"/>
  <circle cx="55" cy="45" r="2" fill="#4ADE80"/>
  <circle cx="65" cy="50" r="2" fill="#4ADE80"/>
  <circle cx="75" cy="35" r="2" fill="#4ADE80"/>
  
  <!-- Grid lines -->
  <g stroke="#333" stroke-width="0.5" opacity="0.3">
    <line x1="20" y1="70" x2="80" y2="70"/>
    <line x1="20" y1="60" x2="80" y2="60"/>
    <line x1="20" y1="50" x2="80" y2="50"/>
    <line x1="20" y1="40" x2="80" y2="40"/>
    <line x1="20" y1="30" x2="80" y2="30"/>
  </g>
  
  <!-- Market symbol -->
  <text x="50" y="85" font-family="system-ui, -apple-system, sans-serif" font-size="8" font-weight="600" fill="#FFFFFF" text-anchor="middle">MARKET</text>
</svg> 